<?xml version="1.0" encoding="utf-8"?>
<!-- Generator: Adobe Adobe Illustrator 24.2.0, SVG Export Plug-In . SVG Version: 6.00 Build 0)  -->
<svg xmlns:vectornator="http://vectornator.io" xmlns:xlink="http://www.w3.org/1999/xlink" version="1.1"
     id="Layer_1" xmlns="http://www.w3.org/2000/svg" x="0px" y="0px" viewBox="0 0 600 600"
     style="enable-background:new 0 0 600 600;" xml:space="preserve">
<style type="text/css">
	.st0{fill:none;stroke:#0DE56C;stroke-width:8;stroke-linecap:round;stroke-linejoin:round;stroke-miterlimit:17.4857;}
	.st1{fill:none;stroke:#0DE56C;stroke-width:8;stroke-miterlimit:10;}
	.st2{font-family:'AmericanTypewriter-Light';}
	.st3{font-size:160px;}
	.st4{letter-spacing:-4.8;}
</style>
    <g>
	<defs>
		<rect id="SVGID_1_" x="0" y="264.1" width="612" height="349.7"/>
	</defs>
        <clipPath id="SVGID_2_">
		<use xlink:href="#SVGID_1_" style="overflow:visible;"/>
	</clipPath>
</g>
    <g xmlns:vectornator="http://vectornator.io" id="Layer-2" vectornator:layerName="Layer 2">
	<path xmlns:vectornator="http://vectornator.io" class="st0" d="M165.4,425c-1.1,4.7-5.5,34.3-8.8,58.5
		c-3.1,22.1,8.7,39.5,8.7,39.5"/>
        <path xmlns:vectornator="http://vectornator.io" class="st0" d="M254.5,524.5c0,0,14.8-14.2,11.1-37.2
		c-3.6-22.5-10.2-62.2-10.2-62.2l-29.6,14c0,0-8.2-2.7-15.8-2.7c-7.6-0.1-14.6,2.5-14.6,2.5l-29.7-14"/>
        <path xmlns:vectornator="http://vectornator.io" class="st0" d="M161.9,534.9l45.4-0.2c0,0-0.5-18.7-22-18.9
		C159.9,515.7,161.9,534.9,161.9,534.9z"/>
        <path xmlns:vectornator="http://vectornator.io" class="st0" d="M212.3,534.9l45.9-0.2c0,0-0.5-18.7-22.2-18.9
		C210.2,515.7,212.3,534.9,212.3,534.9z"/>
        <path xmlns:vectornator="http://vectornator.io" class="st0"
              d="M177.6,486.6c0,0,1.6-12.4,13.8-12.4c12.3,0,13.8,12.6,13.8,12.6"
        />
        <path xmlns:vectornator="http://vectornator.io" class="st0"
              d="M216.1,486.6c0,0,1.6-12.4,13.8-12.4c12.3,0,13.8,12.6,13.8,12.6"
        />
        <path xmlns:vectornator="http://vectornator.io" class="st0" d="M162,534.8l249.5,0.6c0,0,8-54.1-40.8-90.4
		c-52.1-38.7-112.5-13.6-112.5-13.6"/>
        <path xmlns:vectornator="http://vectornator.io" class="st0" d="M411.5,519.6c0,0-39.3-23.8-84.1-15.8
		c-26.3,4.7-22.6,31.3-22.6,31.3"/>
        <path class="st0" d="M411.5,519.6c13.8-4.1,22.8-9,28.8-14.6c23.7-22.1,0.8-55.2,40.5-95.8c19.4-19.8,62.8-36.8,71.4-63.1
		c12.6-38.6,3.9-65.1-14.8-83.8c-18.3-18.3-32.4-28-66.6-28c-29.4,4.1-53.7,26.5-43.7,58.6c7,22.4,61.1-3.3,51.8,51.7
		c-4.6,27-55.1,34.9-60.7,82.5C412.9,472.7,455.9,503.4,411.5,519.6z"/>
        <path xmlns:vectornator="http://vectornator.io" class="st0" d="M470.9,470.2h98.8v65.2h-98.8V470.2z M470.9,470.2l49.9,50l48.8-50
		 M470.9,535.4l34.1-31 M567,533.7l-29.5-28.1"/>
        <path xmlns:vectornator="http://vectornator.io" class="st0" d="M106.2,477.1l34.3,25.2L106.5,524"/>
        <path xmlns:vectornator="http://vectornator.io" class="st0" d="M64.7,477.1l-34.3,25.2L64.5,524"/>
        <path xmlns:vectornator="http://vectornator.io" class="st0" d="M76.3,530.6l22.5-60.2"/>
</g>
    <text transform="matrix(1.26 0 0 1.21 27.7104 172.0623)" class="st1 st2 st3">templ</text>
    <text transform="matrix(1.24 0 0 1.21 27 348.8355)" class="st1 st2 st3 st4">grid</text>
</svg>
